<?xml version="1.0" encoding="UTF-8"?>
<!DOCTYPE svg PUBLIC "-//W3C//DTD SVG 1.1//EN" "http://www.w3.org/Graphics/SVG/1.1/DTD/svg11.dtd">
<svg xmlns="http://www.w3.org/2000/svg" version="1.1" viewBox="0 0 934 582" preserveAspectRatio="xMidYMid meet" style="shape-rendering:geometricPrecision; text-rendering:geometricPrecision; image-rendering:optimizeQuality; fill-rule:evenodd; clip-rule:evenodd" xmlns:xlink="http://www.w3.org/1999/xlink">
<g><path style="opacity:1" fill="#959595" d="M 420.5,-0.5 C 457.167,-0.5 493.833,-0.5 530.5,-0.5C 551.442,2.07978 572.442,5.24645 593.5,9C 608.158,12.0792 622.492,15.9125 636.5,20.5C 633.903,20.7208 633.903,21.2208 636.5,22C 660.78,29.3123 683.947,39.1457 706,51.5C 706.464,50.9056 706.631,50.2389 706.5,49.5C 708.537,50.8465 710.537,52.1798 712.5,53.5C 711.761,53.369 711.094,53.5357 710.5,54C 757.832,80.339 790.332,119.172 808,170.5C 808.383,169.944 808.883,169.611 809.5,169.5C 811.164,174.817 812.83,180.15 814.5,185.5C 813.105,183.946 812.439,184.279 812.5,186.5C 814.399,194.827 816.232,203.16 818,211.5C 818.494,209.866 818.66,208.199 818.5,206.5C 820.138,213.987 821.471,221.654 822.5,229.5C 821.252,230.334 820.585,231.667 820.5,233.5C 821.073,244.327 821.74,254.994 822.5,265.5C 822.177,271.69 822.51,277.69 823.5,283.5C 823.285,285.179 823.952,286.179 825.5,286.5C 824.537,287.363 824.537,288.03 825.5,288.5C 826.611,286.448 828.277,285.114 830.5,284.5C 831.174,286.024 832.174,287.358 833.5,288.5C 834.325,289.386 835.325,289.719 836.5,289.5C 836.027,290.906 835.027,291.573 833.5,291.5C 823.682,296.988 818.682,305.822 818.5,318C 818.605,319.592 818.939,321.092 819.5,322.5C 819.806,325.385 819.473,328.052 818.5,330.5C 818.662,328.473 818.495,326.473 818,324.5C 815.644,336.573 813.311,348.573 811,360.5C 811.278,359.584 811.778,358.918 812.5,358.5C 812.167,360.5 811.833,362.5 811.5,364.5C 810.778,364.082 810.278,363.416 810,362.5C 803.099,387.704 793.933,412.038 782.5,435.5C 782.957,436.298 783.624,436.631 784.5,436.5C 784.167,437.167 783.833,437.833 783.5,438.5C 782.883,438.389 782.383,438.056 782,437.5C 764.042,473.937 742.209,507.77 716.5,539C 717.094,539.464 717.761,539.631 718.5,539.5C 708.545,551.96 698.379,564.293 688,576.5C 686.786,578.049 685.286,579.215 683.5,580C 648.162,580.833 612.829,580.667 577.5,579.5C 576.536,564.876 575.869,550.209 575.5,535.5C 576.117,535.611 576.617,535.944 577,536.5C 575.172,530.138 576.838,524.805 582,520.5C 591.721,502.384 601.387,484.384 611,466.5C 605.262,470.956 599.096,474.789 592.5,478C 548.275,495.219 502.275,502.553 454.5,500C 433.557,498.794 412.89,495.96 392.5,491.5C 397.465,507.65 405.299,522.316 416,535.5C 419.433,539.442 423.266,542.776 427.5,545.5C 426.5,545.5 425.5,545.5 424.5,545.5C 422.458,557.665 419.791,569.665 416.5,581.5C 379.5,581.5 342.5,581.5 305.5,581.5C 291.655,569.994 279.989,556.661 270.5,541.5C 271.239,541.631 271.906,541.464 272.5,541C 266.394,532.123 261.061,522.79 256.5,513C 212.289,498.237 172.289,476.237 136.5,447C 119.815,430.525 104.482,413.691 90.5,396.5C 89.8333,396.5 89.5,396.167 89.5,395.5C 89.6107,394.883 89.944,394.383 90.5,394C 86.5823,388.167 82.9157,382.167 79.5,376C 68.5012,375.794 57.5012,375.96 46.5,376.5C 47.5,374.5 48.5,372.5 49.5,370.5C 54.9383,361.137 58.105,350.803 59,339.5C 63.5012,310.157 62.1679,281.157 55,252.5C 52.0556,246.273 48.8889,240.273 45.5,234.5C 45.1667,233.833 44.8333,233.167 44.5,232.5C 49.4932,232.084 54.4932,231.751 59.5,231.5C 60.7927,232.645 61.9593,232.311 63,230.5C 68.9869,207.533 77.9869,185.866 90,165.5C 98.9449,152.061 108.445,139.061 118.5,126.5C 128.152,115.849 138.485,105.849 149.5,96.5C 155.668,120.188 165.001,142.521 177.5,163.5C 179.421,164.641 181.421,164.808 183.5,164C 193.425,160.2 203.425,156.7 213.5,153.5C 202.682,111.203 179.849,76.87 145,50.5C 144.333,55.5 144.333,60.5 145,65.5C 145.823,74.5828 146.823,83.5828 148,92.5C 134.492,69.3577 117.159,49.3577 96,32.5C 95.3162,31.2161 95.4829,30.0495 96.5,29C 98.3921,28.0266 100.392,27.3599 102.5,27C 101.906,26.5357 101.239,26.369 100.5,26.5C 108.356,24.8477 116.356,23.5143 124.5,22.5C 128.276,23.8248 132.443,24.4915 137,24.5C 141.58,24.4721 146.08,24.1388 150.5,23.5C 163.963,23.3239 176.963,25.3239 189.5,29.5C 188.448,29.3505 187.448,29.5172 186.5,30C 200.184,33.5112 213.184,38.6779 225.5,45.5C 226.107,45.3764 226.44,45.0431 226.5,44.5C 227.995,44.9887 229.329,45.6554 230.5,46.5C 229.183,47.5873 230.183,47.7539 233.5,47C 241.667,42.9447 250.001,39.278 258.5,36C 257.906,35.5357 257.239,35.369 256.5,35.5C 294.895,20.848 334.561,10.6813 375.5,5C 390.619,2.90856 405.619,1.07522 420.5,-0.5 Z"/></g>
<g><path style="opacity:1" fill="#585858" d="M 124.5,22.5 C 133.349,22.1736 142.016,22.507 150.5,23.5C 146.08,24.1388 141.58,24.4721 137,24.5C 132.443,24.4915 128.276,23.8248 124.5,22.5 Z"/></g>
<g><path style="opacity:1" fill="#717171" d="M 636.5,20.5 C 660.797,27.8217 684.13,37.4884 706.5,49.5C 706.631,50.2389 706.464,50.9056 706,51.5C 683.947,39.1457 660.78,29.3123 636.5,22C 633.903,21.2208 633.903,20.7208 636.5,20.5 Z"/></g>
<g><path style="opacity:1" fill="#6b6b6b" d="M 189.5,29.5 C 202.791,32.369 215.124,37.369 226.5,44.5C 226.44,45.0431 226.107,45.3764 225.5,45.5C 213.184,38.6779 200.184,33.5112 186.5,30C 187.448,29.5172 188.448,29.3505 189.5,29.5 Z"/></g>
<g><path style="opacity:1" fill="#5c5c5c" d="M 256.5,35.5 C 257.239,35.369 257.906,35.5357 258.5,36C 250.001,39.278 241.667,42.9447 233.5,47C 230.183,47.7539 229.183,47.5873 230.5,46.5C 238.931,42.2845 247.598,38.6178 256.5,35.5 Z"/></g>
<g><path style="opacity:1" fill="#2b2b2b" d="M 436.5,41.5 C 471.004,40.2745 505.338,42.1078 539.5,47C 551.743,51.0004 554.909,58.8337 549,70.5C 545.925,74.3706 541.925,76.3706 537,76.5C 488.474,68.3534 439.974,68.5201 391.5,77C 379.388,79.8765 372.388,75.2099 370.5,63C 370.631,57.0666 373.297,52.7333 378.5,50C 384.748,48.2838 391.081,46.9504 397.5,46C 410.688,44.8756 423.688,43.3756 436.5,41.5 Z"/></g>
<g><path style="opacity:1" fill="#757575" d="M 100.5,26.5 C 101.239,26.369 101.906,26.5357 102.5,27C 100.392,27.3599 98.3921,28.0266 96.5,29C 95.4829,30.0495 95.3162,31.2161 96,32.5C 117.159,49.3577 134.492,69.3577 148,92.5C 146.823,83.5828 145.823,74.5828 145,65.5C 144.333,60.5 144.333,55.5 145,50.5C 179.849,76.87 202.682,111.203 213.5,153.5C 203.425,156.7 193.425,160.2 183.5,164C 181.421,164.808 179.421,164.641 177.5,163.5C 165.001,142.521 155.668,120.188 149.5,96.5C 138.485,105.849 128.152,115.849 118.5,126.5C 118.167,126.5 117.833,126.5 117.5,126.5C 100.325,95.599 92.3246,62.599 93.5,27.5C 95.7638,26.7814 98.0971,26.448 100.5,26.5 Z"/></g>
<g><path style="opacity:1" fill="#1e1e1e" d="M 93.5,27.5 C 92.3246,62.599 100.325,95.599 117.5,126.5C 116.833,127.167 116.167,127.833 115.5,128.5C 104.04,106.885 96.5404,83.8851 93,59.5C 91.7555,49.1897 91.4221,38.8563 92,28.5C 92.3826,27.944 92.8826,27.6107 93.5,27.5 Z"/></g>
<g><path style="opacity:1" fill="#5f5f5f" d="M 712.5,53.5 C 759.888,79.6273 792.221,118.294 809.5,169.5C 808.883,169.611 808.383,169.944 808,170.5C 790.332,119.172 757.832,80.339 710.5,54C 711.094,53.5357 711.761,53.369 712.5,53.5 Z"/></g>
<g><path style="opacity:1" fill="#575656" d="M 117.5,126.5 C 117.833,126.5 118.167,126.5 118.5,126.5C 108.445,139.061 98.9449,152.061 90,165.5C 77.9869,185.866 68.9869,207.533 63,230.5C 61.9593,232.311 60.7927,232.645 59.5,231.5C 70.6081,192.943 89.2747,158.61 115.5,128.5C 116.167,127.833 116.833,127.167 117.5,126.5 Z"/></g>
<g><path style="opacity:1" fill="#555555" d="M 814.5,185.5 C 816.309,192.405 817.643,199.405 818.5,206.5C 818.66,208.199 818.494,209.866 818,211.5C 816.232,203.16 814.399,194.827 812.5,186.5C 812.439,184.279 813.105,183.946 814.5,185.5 Z"/></g>
<g><path style="opacity:1" fill="#010101" d="M 141.5,198.5 C 154.467,197.656 162.967,203.323 167,215.5C 169.072,229.884 163.238,239.05 149.5,243C 130.177,244.01 121.344,234.843 123,215.5C 126.233,206.426 132.399,200.759 141.5,198.5 Z"/></g>
<g><path style="opacity:1" fill="#bbbbbb" d="M 153.5,204.5 C 160.238,205.061 161.905,208.228 158.5,214C 153.932,215.65 151.266,214.15 150.5,209.5C 151.092,207.577 152.092,205.911 153.5,204.5 Z"/></g>
<g><path style="opacity:1" fill="#686868" d="M 822.5,229.5 C 823.143,237.15 823.477,244.817 823.5,252.5C 822.92,256.81 822.586,261.143 822.5,265.5C 821.74,254.994 821.073,244.327 820.5,233.5C 820.585,231.667 821.252,230.334 822.5,229.5 Z"/></g>
<g><path style="opacity:1" fill="#4b4b4b" d="M 823.5,252.5 C 824.818,262.735 824.818,273.069 823.5,283.5C 822.51,277.69 822.177,271.69 822.5,265.5C 822.586,261.143 822.92,256.81 823.5,252.5 Z"/></g>
<g><path style="opacity:1" fill="#4f4f4f" d="M 848.5,269.5 C 849.239,269.369 849.906,269.536 850.5,270C 842.532,273.149 835.865,277.982 830.5,284.5C 828.277,285.114 826.611,286.448 825.5,288.5C 824.537,288.03 824.537,287.363 825.5,286.5C 831.754,278.912 839.42,273.245 848.5,269.5 Z"/></g>
<g><path style="opacity:1" fill="#666666" d="M 887.5,271.5 C 889.255,272.072 890.922,272.906 892.5,274C 896.358,277.582 899.858,281.416 903,285.5C 907.03,283.399 911.196,281.732 915.5,280.5C 912.018,282.835 907.851,285.169 903,287.5C 897.84,282.008 892.34,276.841 886.5,272C 886.728,271.601 887.062,271.435 887.5,271.5 Z"/></g>
<g><path style="opacity:1" fill="#8f8f8f" d="M 887.5,271.5 C 887.062,271.435 886.728,271.601 886.5,272C 892.34,276.841 897.84,282.008 903,287.5C 907.851,285.169 912.018,282.835 915.5,280.5C 921.105,277.267 927.105,276.267 933.5,277.5C 933.5,279.833 933.5,282.167 933.5,284.5C 924.978,286.897 916.644,289.897 908.5,293.5C 907.334,295.167 907.334,296.834 908.5,298.5C 907.069,298.119 906.236,297.119 906,295.5C 905.833,296.167 905.667,296.833 905.5,297.5C 909.731,309.181 910.564,321.181 908,333.5C 906.615,334.551 905.615,335.884 905,337.5C 904.667,336.5 904.333,335.5 904,334.5C 903.667,334.833 903.333,335.167 903,335.5C 903.309,327.848 903.309,320.181 903,312.5C 902.817,315.365 902.317,318.031 901.5,320.5C 901.477,315.126 900.977,309.793 900,304.5C 899.8,302.68 898.966,301.347 897.5,300.5C 886.336,306.561 878.67,316.061 874.5,329C 874.57,329.765 874.903,330.265 875.5,330.5C 875.5,331.167 875.5,331.833 875.5,332.5C 874.175,331.047 873.342,331.381 873,333.5C 870.828,341.603 871.162,349.603 874,357.5C 877.71,362.888 882.21,363.722 887.5,360C 891.123,356.551 894.123,352.717 896.5,348.5C 898.978,346.235 900.644,347.069 901.5,351C 899.053,357.788 894.72,363.122 888.5,367C 888.728,367.399 889.062,367.565 889.5,367.5C 889.158,368.338 888.492,368.672 887.5,368.5C 875.565,370.113 868.399,364.78 866,352.5C 865.817,345.645 865.651,338.978 865.5,332.5C 865.41,329.848 866.076,327.515 867.5,325.5C 867.369,326.239 867.536,326.906 868,327.5C 873.417,312.966 882.417,301.299 895,292.5C 894.342,288.036 892.175,284.203 888.5,281C 877.752,273.082 866.086,271.415 853.5,276C 854.056,276.383 854.389,276.883 854.5,277.5C 847.702,280.297 841.702,284.297 836.5,289.5C 835.325,289.719 834.325,289.386 833.5,288.5C 832.174,287.358 831.174,286.024 830.5,284.5C 835.865,277.982 842.532,273.149 850.5,270C 849.906,269.536 849.239,269.369 848.5,269.5C 854.357,266.457 860.69,265.123 867.5,265.5C 875.066,264.914 881.733,266.914 887.5,271.5 Z"/></g>
<g><path style="opacity:1" fill="#d57774" d="M 27.5,254.5 C 28.1239,254.917 28.4573,255.584 28.5,256.5C 26.6785,263.412 25.8452,270.412 26,277.5C 27.3333,276.167 28.6667,276.167 30,277.5C 31.7497,280.246 32.7497,283.246 33,286.5C 33.832,295.518 33.6653,304.518 32.5,313.5C 31.9278,315.917 30.9278,318.084 29.5,320C 26.7019,320.561 24.8686,319.394 24,316.5C 23.6667,318.5 23.3333,320.5 23,322.5C 22.8138,319.964 22.3138,317.631 21.5,315.5C 21.5,307.833 21.5,300.167 21.5,292.5C 22.3285,299.321 22.8285,306.321 23,313.5C 23.3476,303.325 23.8476,293.158 24.5,283C 24.4961,280.639 24.1627,278.473 23.5,276.5C 23.7003,268.842 25.0337,261.508 27.5,254.5 Z"/></g>
<g><path style="opacity:1" fill="#5e5e5e" d="M 867.5,325.5 C 869.685,318.129 873.185,311.463 878,305.5C 883.233,300.267 888.4,295.1 893.5,290C 883.756,275.919 870.756,271.753 854.5,277.5C 854.389,276.883 854.056,276.383 853.5,276C 866.086,271.415 877.752,273.082 888.5,281C 892.175,284.203 894.342,288.036 895,292.5C 882.417,301.299 873.417,312.966 868,327.5C 867.536,326.906 867.369,326.239 867.5,325.5 Z"/></g>
<g><path style="opacity:1" fill="#c6362a" d="M 23.5,276.5 C 24.1627,278.473 24.4961,280.639 24.5,283C 23.8476,293.158 23.3476,303.325 23,313.5C 22.8285,306.321 22.3285,299.321 21.5,292.5C 21.8749,286.991 22.5416,281.658 23.5,276.5 Z"/></g>
<g><path style="opacity:1" fill="#636363" d="M 833.5,291.5 C 830.008,295.803 826.508,300.136 823,304.5C 822.053,310.68 820.886,316.68 819.5,322.5C 818.939,321.092 818.605,319.592 818.5,318C 818.682,305.822 823.682,296.988 833.5,291.5 Z"/></g>
<g><path style="opacity:1" fill="#e99694" d="M 44.5,232.5 C 44.8333,233.167 45.1667,233.833 45.5,234.5C 44.1266,234.343 42.7932,234.51 41.5,235C 51.6482,244.119 56.3148,255.452 55.5,269C 61.8688,293.961 62.0355,319.128 56,344.5C 53.405,344.003 50.905,344.67 48.5,346.5C 46.4557,345.02 45.1224,345.52 44.5,348C 44.7804,349.395 45.4471,350.562 46.5,351.5C 49.0393,350.885 51.5393,350.218 54,349.5C 54.1667,350 54.3333,350.5 54.5,351C 53.1638,353.678 52.3304,356.511 52,359.5C 51.5,360.667 50.6667,361.5 49.5,362C 50.0126,364.718 50.0126,367.551 49.5,370.5C 48.5,372.5 47.5,374.5 46.5,376.5C 50.6344,377.485 54.9677,377.818 59.5,377.5C 54.632,378.213 49.632,378.879 44.5,379.5C 42.9291,378.691 41.2624,378.357 39.5,378.5C 39.6107,377.883 39.944,377.383 40.5,377C 37.3333,375.167 34.8333,372.667 33,369.5C 30.3966,363.357 28.3966,357.023 27,350.5C 26.7679,351.737 26.2679,352.737 25.5,353.5C 25.5674,352.041 25.2341,350.708 24.5,349.5C 25.9468,348.866 26.6134,347.699 26.5,346C 25.6127,341.176 24.7794,336.343 24,331.5C 23.8019,333.382 23.3019,335.048 22.5,336.5C 21.7103,329.529 21.3769,322.529 21.5,315.5C 22.3138,317.631 22.8138,319.964 23,322.5C 23.3333,320.5 23.6667,318.5 24,316.5C 24.8686,319.394 26.7019,320.561 29.5,320C 30.9278,318.084 31.9278,315.917 32.5,313.5C 33.6653,304.518 33.832,295.518 33,286.5C 32.7497,283.246 31.7497,280.246 30,277.5C 28.6667,276.167 27.3333,276.167 26,277.5C 25.8452,270.412 26.6785,263.412 28.5,256.5C 28.4573,255.584 28.1239,254.917 27.5,254.5C 28.6843,246.296 32.351,239.463 38.5,234C 40.3453,232.872 42.3453,232.372 44.5,232.5 Z"/></g>
<g><path style="opacity:1" fill="#ce7574" d="M 41.5,278.5 C 43.9115,278.137 45.4115,279.137 46,281.5C 47.4749,293.465 47.8083,305.465 47,317.5C 46.7828,320.939 45.2828,323.605 42.5,325.5C 40.8035,324.636 39.6368,323.303 39,321.5C 37.4889,310.878 37.1556,300.211 38,289.5C 38.4744,285.578 39.641,281.912 41.5,278.5 Z"/></g>
<g><path style="opacity:1" fill="#575757" d="M 897.5,300.5 C 887.212,308.439 879.879,318.439 875.5,330.5C 874.903,330.265 874.57,329.765 874.5,329C 878.67,316.061 886.336,306.561 897.5,300.5 Z"/></g>
<g><path style="opacity:1" fill="#595959" d="M 818.5,330.5 C 817.134,340 815.134,349.333 812.5,358.5C 811.778,358.918 811.278,359.584 811,360.5C 813.311,348.573 815.644,336.573 818,324.5C 818.495,326.473 818.662,328.473 818.5,330.5 Z"/></g>
<g><path style="opacity:1" fill="#797979" d="M 908.5,298.5 C 914.368,319.705 911.535,339.705 900,358.5C 896.902,362.107 893.402,365.107 889.5,367.5C 889.062,367.565 888.728,367.399 888.5,367C 894.72,363.122 899.053,357.788 901.5,351C 900.644,347.069 898.978,346.235 896.5,348.5C 898.442,343.611 900.109,338.611 901.5,333.5C 901.457,332.584 901.124,331.917 900.5,331.5C 900.942,327.846 901.276,324.179 901.5,320.5C 902.317,318.031 902.817,315.365 903,312.5C 903.309,320.181 903.309,327.848 903,335.5C 903.333,335.167 903.667,334.833 904,334.5C 904.333,335.5 904.667,336.5 905,337.5C 905.615,335.884 906.615,334.551 908,333.5C 910.564,321.181 909.731,309.181 905.5,297.5C 905.667,296.833 905.833,296.167 906,295.5C 906.236,297.119 907.069,298.119 908.5,298.5 Z"/></g>
<g><path style="opacity:1" fill="#da645b" d="M 24.5,349.5 C 24.1563,345.106 23.4897,340.772 22.5,336.5C 23.3019,335.048 23.8019,333.382 24,331.5C 24.7794,336.343 25.6127,341.176 26.5,346C 26.6134,347.699 25.9468,348.866 24.5,349.5 Z"/></g>
<g><path style="opacity:1" fill="#db9c98" d="M 45.5,234.5 C 48.8889,240.273 52.0556,246.273 55,252.5C 62.1679,281.157 63.5012,310.157 59,339.5C 58.105,350.803 54.9383,361.137 49.5,370.5C 50.0126,367.551 50.0126,364.718 49.5,362C 50.6667,361.5 51.5,360.667 52,359.5C 52.3304,356.511 53.1638,353.678 54.5,351C 54.3333,350.5 54.1667,350 54,349.5C 51.5393,350.218 49.0393,350.885 46.5,351.5C 45.4471,350.562 44.7804,349.395 44.5,348C 45.1224,345.52 46.4557,345.02 48.5,346.5C 50.905,344.67 53.405,344.003 56,344.5C 62.0355,319.128 61.8688,293.961 55.5,269C 56.3148,255.452 51.6482,244.119 41.5,235C 42.7932,234.51 44.1266,234.343 45.5,234.5 Z"/></g>
<g><path style="opacity:1" fill="#5c5c5c" d="M 875.5,332.5 C 872.444,341.386 872.944,350.053 877,358.5C 881.964,361.229 886.297,360.229 890,355.5C 894.777,347.982 898.277,339.982 900.5,331.5C 901.124,331.917 901.457,332.584 901.5,333.5C 900.109,338.611 898.442,343.611 896.5,348.5C 894.123,352.717 891.123,356.551 887.5,360C 882.21,363.722 877.71,362.888 874,357.5C 871.162,349.603 870.828,341.603 873,333.5C 873.342,331.381 874.175,331.047 875.5,332.5 Z"/></g>
<g><path style="opacity:1" fill="#4d4d4d" d="M 865.5,332.5 C 865.651,338.978 865.817,345.645 866,352.5C 868.399,364.78 875.565,370.113 887.5,368.5C 874.613,371.172 866.779,365.839 864,352.5C 863.071,345.582 863.571,338.915 865.5,332.5 Z"/></g>
<g><path style="opacity:1" fill="#d56b69" d="M 39.5,378.5 C 37.2654,377.772 35.4321,376.439 34,374.5C 30.0802,367.9 27.2469,360.9 25.5,353.5C 26.2679,352.737 26.7679,351.737 27,350.5C 28.3966,357.023 30.3966,363.357 33,369.5C 34.8333,372.667 37.3333,375.167 40.5,377C 39.944,377.383 39.6107,377.883 39.5,378.5 Z"/></g>
<g><path style="opacity:1" fill="#524f4f" d="M 89.5,395.5 C 85.3437,389.195 81.177,382.862 77,376.5C 71.2588,377.475 65.4254,377.808 59.5,377.5C 54.9677,377.818 50.6344,377.485 46.5,376.5C 57.5012,375.96 68.5012,375.794 79.5,376C 82.9157,382.167 86.5823,388.167 90.5,394C 89.944,394.383 89.6107,394.883 89.5,395.5 Z"/></g>
<g><path style="opacity:1" fill="#595959" d="M 811.5,364.5 C 804.736,389.357 795.736,413.357 784.5,436.5C 783.624,436.631 782.957,436.298 782.5,435.5C 793.933,412.038 803.099,387.704 810,362.5C 810.278,363.416 810.778,364.082 811.5,364.5 Z"/></g>
<g><path style="opacity:1" fill="#585757" d="M 270.5,541.5 C 264.8,532.607 259.466,523.44 254.5,514C 196.618,495.726 147.452,464.226 107,419.5C 101.256,411.936 95.7563,404.27 90.5,396.5C 104.482,413.691 119.815,430.525 136.5,447C 172.289,476.237 212.289,498.237 256.5,513C 261.061,522.79 266.394,532.123 272.5,541C 271.906,541.464 271.239,541.631 270.5,541.5 Z"/></g>
<g><path style="opacity:1" fill="#6f6f6f" d="M 575.5,535.5 C 575.795,533.265 575.461,531.265 574.5,529.5C 575.85,528.35 575.684,527.683 574,527.5C 562.595,530.151 551.095,532.318 539.5,534C 541.058,534.21 542.391,534.71 543.5,535.5C 541.167,535.5 538.833,535.5 536.5,535.5C 535.726,534.853 534.726,534.52 533.5,534.5C 530.5,535 527.5,535.5 524.5,536C 525.737,536.232 526.737,536.732 527.5,537.5C 525.5,537.5 523.5,537.5 521.5,537.5C 520.903,536.861 520.07,536.528 519,536.5C 516.176,537.054 513.343,537.554 510.5,538C 511.737,538.232 512.737,538.732 513.5,539.5C 505.174,540.249 496.84,540.916 488.5,541.5C 486.422,540.899 484.255,540.566 482,540.5C 468.183,541.603 454.35,542.436 440.5,543C 444.688,543.176 448.688,543.676 452.5,544.5C 444.146,544.427 435.812,544.76 427.5,545.5C 423.266,542.776 419.433,539.442 416,535.5C 405.299,522.316 397.465,507.65 392.5,491.5C 412.89,495.96 433.557,498.794 454.5,500C 502.275,502.553 548.275,495.219 592.5,478C 599.096,474.789 605.262,470.956 611,466.5C 601.387,484.384 591.721,502.384 582,520.5C 576.838,524.805 575.172,530.138 577,536.5C 576.617,535.944 576.117,535.611 575.5,535.5 Z"/></g>
<g><path style="opacity:1" fill="#5e5e5e" d="M 783.5,438.5 C 765.573,474.716 743.906,508.382 718.5,539.5C 717.761,539.631 717.094,539.464 716.5,539C 742.209,507.77 764.042,473.937 782,437.5C 782.383,438.056 782.883,438.389 783.5,438.5 Z"/></g>
<g><path style="opacity:1" fill="#252525" d="M 574.5,529.5 C 564.143,531.505 553.81,533.505 543.5,535.5C 542.391,534.71 541.058,534.21 539.5,534C 551.095,532.318 562.595,530.151 574,527.5C 575.684,527.683 575.85,528.35 574.5,529.5 Z"/></g>
<g><path style="opacity:1" fill="#181818" d="M 536.5,535.5 C 533.61,536.245 530.61,536.912 527.5,537.5C 526.737,536.732 525.737,536.232 524.5,536C 527.5,535.5 530.5,535 533.5,534.5C 534.726,534.52 535.726,534.853 536.5,535.5 Z"/></g>
<g><path style="opacity:1" fill="#202020" d="M 521.5,537.5 C 518.833,538.167 516.167,538.833 513.5,539.5C 512.737,538.732 511.737,538.232 510.5,538C 513.343,537.554 516.176,537.054 519,536.5C 520.07,536.528 520.903,536.861 521.5,537.5 Z"/></g>
<g><path style="opacity:1" fill="#2b2b2b" d="M 488.5,541.5 C 476.654,542.717 464.654,543.717 452.5,544.5C 448.688,543.676 444.688,543.176 440.5,543C 454.35,542.436 468.183,541.603 482,540.5C 484.255,540.566 486.422,540.899 488.5,541.5 Z"/></g>
</svg>
