<svg xmlns="http://www.w3.org/2000/svg" viewBox="0 0 1200 1200" width="1200" height="1200"><style>.pp{fill:#f9e4a9}.sea{fill:#4ddaea;opacity:.62;stroke:#2ea5ef;stroke-width:3}.isle{fill:#f9e4a9}.block{fill:#ecce8d;opacity:.34}.old{fill:#ecce8d;opacity:.62;stroke:#ce8327;stroke-width:4;stroke-dasharray:14 8}.sand{fill:#ecce8d;opacity:.55}.green{fill:#64de6a;opacity:.5}.grave{fill:#3ab055;opacity:.34}.plaza{fill:#ecce8d;opacity:.75}.water{fill:#4ddaea;opacity:.62;stroke:#2ea5ef;stroke-width:2.5}.river{fill:none;stroke:#4ddaea;stroke-width:9;stroke-linecap:round;opacity:.75}.cs,.rd{fill:none;stroke-linecap:round;stroke-linejoin:round}.cs{stroke:#ce8327;opacity:.5}.cs .r0{stroke-width:12.09}.cs .r1{stroke-width:10.58}.cs .r2{stroke-width:8.69}.cs .r3{stroke-width:6.8}.cs .r4{stroke-width:4.99}.cs .r5{stroke-width:4.54}.rd .r0{stroke:#ffd152;stroke-width:8.32}.rd .r1{stroke:#ffd152;stroke-width:7.18}.rd .r2{stroke:#ffebad;stroke-width:5.67}.rd .r3{stroke:#fffaf0;stroke-width:4.23}.rd .r4{stroke:#fffaf0;stroke-width:2.87}.rd .r5{stroke:#fffaf0;stroke-width:2.57}.rail{fill:none;stroke:#957128;stroke-width:3.02}.tie{fill:none;stroke:#fffaf0;stroke-width:1.66;stroke-dasharray:7 7}.wall{fill:none;stroke:#a86115;stroke-width:6;stroke-linecap:round}</style><defs><path id="r5" d="M918 148l96 83 57 59M1019 238l-1-1-5-6 1 2-3 3-13-13-3 2-7-10 7-4 15 14-2 1 6 4 35 34-2 1-2-1-4 3-11-12 3-4-8-8-1 1-5-6M911 148l31-25 36-41 27-22M1095 1033l-4 128M1099 891l-4 126M968 996l120 28M1191 1087l-3 6-6 5-1 3 9 47-2 12-4 6-15 10-11 5-7 0M1168 426l-5-9-19-27-48-59M834 59l49 54 27 25M596 570l1 3 10-3 33-12-1-3-15 5 0 1-11 3 0 2-2 1-3-2-12 5M723 125l-6 2-2-4-5-2-2-28 13 0 0 4 2 0 1 10 1 4-2 0-1-3-2 1 3 16M915 147l22 19 4-5-33-27-2 2 9 11M1045 1095l93 10M1016 697l10 0-1-5-3 0-4-14-7 1 4 14-9 1-2-6-1 1 2 10 11-2M1158 1129l3 16 1 0 1-1 2 1 2 5-2 7-2 1 0-2-2 0 2 4 2-1 5-7 3 0 0-3-3-3-9-17-3 0M1057 1081l7 6 6 2 68 9M611 570l3 12-4-12 1-2 14-4 5 11-5-11-14 6M1045 1095l-36 50-4 3-13 2M666 629l-2-14-2 1 2 4-2 1-2-4-2 1 1 3-2 1-1-3-3 1 2 4-2 1-2-4-1 0 2 3-2 1 0 4 16 0M970 847l8 79M140 0l-69 36M989 214l-21-16-37-33M757 568l-13-8-11-5 5-3 3 1 8-7 13 18-5 4M711 65l-50-54M592 613l0-2-3 1-2-1-1-1 4-2-5 1-3-6-4 1 3 7-5 2 4-1 0 1-4 3 1 3 7-3 1 1 1 0 0-2 6-2M431 260l-8 4-20-37-18 9M516 383l-11-46 23-6M39 889l64-29M101 1127l-17 0-11-7 18-35M1032 61l8 6 14-3 0-3-4 1 0-2 3-1-1-6-17 4 0 3-3 1M1027 240l-48-43-2 2M103 860l1 4-54 23 0 2 1 2M362 349l-2 2 1 4-9 2 1 6 2 2-2 1 2 6 12-3-5-20M730 61l13 0 4 8-2 1 2 1-2 8-15 0 0-18M521 333l7 28 7-2-7-28M1091 1120l-64 0M668 934l-5-4-1 2 1 3-4 7-3 2-1 3 19 0 2-1 0-3-8-9M878 105l-2 2 2 2-2 1-1-1-2 1 1 3 2 2 1-1 6 6-1 1 3 2 2-2-2-2 1-2 3 2 1-1-4-7-8-6M624 559l-7-16 7 17-11 4 11-3 0-2M1025 671l-4 1 5 25 1 0 2-1 0-2 3-1-7-22M1065 289l-43-43M685 607l-21-57M802 152l-35 6-22 7M1090 1032l-34 47M1103 324l-2 1-5-5-1 0 3 4-1 1-7-9 0-4-2-2 2-2 13 16M794 0l18 30 14 17M687 576l52-17M397 314l2 4 5-1 33-19-3-6M399 199l-12-21-26 14M1158 1048l1 53M846 529l5 14 1 0 17-5 2-2-2-5 11-3M596 570l9-4-4-14 5 14-1 1-9 3M253 578l10-4 3 2 34-13M34 1064l-14 24 1 6-8 15M415 174l7 11 5 2 4 0 12-6 0-3-6-10M61 294l48-12M38 1123l24-42M22 1151l-3 7-19 37M331 234l12-6 2-5 13-7 7 0 7-3M750 85l14-4 1 7-13 2 0 3-2 0 0-8M279 58l-22-41M1093 1119l47 0M222 1113l7-1 2-2-2-27-2-2-7 0M640 557l-25 8-2 2-17 5M618 542l4-1 7 17-5 2-6-18M734 861l10 29-11 10M718 22l7-6 3 17-2 1-3-3 1-2-1-2-2 1-3-6M1102 1025l-2-4-6-4-6 5 0 3 2 7 6 1 5-3 1-5M1071 290l30 34M974 1173l-2 0-1-1 12-2 0-3 3 0 0 5 1 0 0 2-3 0 0-2-10 1M626 1062l1 11 4-1 5 1 3-10-6-1-7 0M606 570l-9 3 10-3 4 11-5-11M1064 289l-5-4-2 2-4-5 7-6 9 10-5 3M852 77l-1 1-3-4-2 2 3 4-2 2-6-10 4-3 2 3 2 1 3 4M474 1019l24 2 0 21M361 192l-24 12-5-1-9 7M433 160l-5-8-11 6 6 12 7-3M987 215l8 11 3-1 0 1-6 3-8-12 3-2M198 500l-11-41M564 23l1 2-1 0 6 7 8-9-7-5-7 5M882 983l-39 16M398 496l6 19-6 3 2 8-2 5-2 0M598 569l7-2-2-8-3 1 2 4-5 1-1-4-1 0 3 8M1095 1025l41 9M337 147l37-20M141 75l37-18M802 152l18-6 20-10M790 326l3 7 9-4-1-3-2 1-1-2 2-1-1-2-9 4M101 902l-8 40M794 541l-38 13M792 933l10-5-5-15 1-3-1-3 3-4 2 0M619 558l-4 1 1 4 8-3-3-7-7 2 0 2 4-2 1 3M684 33l-2 1-3-3 11-10 3 4-9 8M435 432l9 34-4 1M1111 1119l0 39M93 743l-6 2 1 1-7 1 0 1 2 1 0-1 13-4 0-1 0-1-3 2 0-1M210 968l2-7 11-21 7 1M1111 1162l0 38M1108 647l1-4 22-25M981 275l-10-13-10-17M826 114l-16 6-19 1M682 32l-20 18-6 8M702 538l33 16M639 555l-10 3-3-7 3 8 10-4M527 451l4-3-13-29M1076 879l3 8 4-1 1-4 3-1-2-3-2 2-2-2-3 2-2-1M1185 1049l9 35M673 2l-28 23M1007 868l-35 6M779 207l5-2 5 10-5 2 0-1-2 1-3-8 1 0-1-2M606 566l2-1-4-14-3 1 5 14M1091 1165l-1 35M1149 1181l-9 1 0 8-2 4-12 6M483 409l6 23-4 11M990 894l4 34M356 182l16 31M459 407l-8-33M791 121l1 11 10 20M630 575l0-6 2-2-2-5-5 2 5 11M1050 1055l3-33M974 1171l-1-5 11-2 1 3-2 0 0 3-9 1M715 494l5 13 3-2-4-12-4 1M986 1174l0 3-11 1-1-5 10-1 0 2 2 0M794 541l31-11M630 562l3 5-2-5 9-4-10 4M178 283l-14-29M334 444l-7-31M721 59l14-15-7-9M4 1120l28 15M584 1180l30-5M859 1058l-11 2 0 1 2 6 4-1 5-8M415 174l-1-5-10-17-5-3M607 570l3-1 4 13-3 0-4-12M220 946l2 0-4 21-8-1M645 25l4 7 15 16M110 741l-2 1 14-4-2-1-10 4M372 213l27-14M689 18l2 6 16 18M609 565l-5-14 5 14M602 552l10 28M600 582l0-1 9-3 1 4 0 1-3 1-1-4-6 2M1161 1067l1 10-5 0 0-10 4 0M374 1139l7 28M698 308l-2-9-4 1 3 11 3-3M298 1034l28-6M1112 1180l8 2 20 0M687 523l-11 3-6-4-4-9M662 542l-10-26M647 1l-4 1-3 5 1 6 4 12M411 417l-7-27M406 418l-6-27M430 765l-9-25M376 316l24-13M533 1022l-27-2M764 128l27 1M38 1123l-6 11-3 3-5 9M1157 1118l27 0M1154 1038l-1 3 3 3 4 0 2-1 1-4-9-1M482 436l-7-25M966 822l4 25M274 386l-21 12M1056 1079l-5-13-1-11M422 1021l24 1M4 256l-4-23M721 59l-4 12-1 11M718 23l-14-15-2 0M1159 1039l23 5M907 144l22-10M1195 1091l3-1 1-3-2-2-2-1-3 1-1 2 1 3 3 1M609 551l0 4 8-3-1-3-7 2M619 570l-3 0 1 4 7-2-2-4-3 2M594 566l1 4 3-1-3-8-2 1 2 4-1 0M1091 1167l19 12M674 1l15 17M218 967l5 1 4-17M626 1074l6-1 5 2-6 1-5-2M173 249l-11-20M1084 313l-13-18M611 559l0-1 7-3 1 3-7 3-1-2M16 306l22-6M916 153l-16-15M495 569l6 2 5 14M1096 331l-12-18M671 395l9-3-5-11M1024 244l-3 2-5-4 3-4 5 6M611 559l0-1 3-1-1-2-7 3 2 3 3-2M743 185l-8-19M917 420l-3 0 0 4 4-1 0-1 2-1 0-3-3 2M714 98l2 21M792 530l5-1 2 4-6 2-1-5M601 584l-1-2 6-2 1 4-5 2-1-2M587 553l1 3 3-2-1-3-1 0 1 3-2 1-1-2M595 573l-1-2-6 2 1 3 6-3M274 567l-8-19M1163 1138l-3-9-1-10M308 366l-17 10M1004 228l-8-9-7-5M1009 891l-19 3M291 376l-17 10M592 556l2 4 4-1-1-4-5 1M292 800l-2-6 0-1 10-4M828 360l18-7M508 458l18-7M931 165l-15-12M1056 1079l-11 16M775 577l16 10M753 714l5 18M1028 890l2 18M594 562l-1 0-3-7 1-1 3 8M322 805l-5-14-2-2M737 870l-17 6M404 310l-9-16M1189 1093l1 1 2-2 3 1-4-4-2 4"/><path id="r4" d="M185 172l-66 35-80 22M59 224l-4-20 1-3 68-23 55-26M218 361l125-65M1200 729l-72-64-14-11-22-14M134 375l26 92 7 38M282 165l53-30 45-23 19-12M884 754l-126 43M162 117l-57-117M269 129l47-28 62-32M487 262l-97 55M405 837l105-38M240 406l87-35-3-14M804 430l10 50 15 48M486 745l-95 35M224 979l-5 23-5 14-7 10-8 10-7 7-20 12M730 201l37 90M622 874l5 11 55 62M81 193l8 22 33 62M1045 421l20-26-47-38M240 406l-88 32M67 160l-3-14 0-11 16-46 1-6-2-11M1145 671l18-61-2-6-14-16M344 797l-80 30 0 5M301 218l-78 41M1097 887l1-2 2-65-2-20M277 694l-24-85M767 291l25 66 2 16M74 626l-4-87M533 1012l-86-4M571 40l-19 30-13 28-11 16M289 733l-55 17-12-25M534 992l-86-4M596 801l81-30M253 609l-82 28M218 361l-48 23-29 13M696 84l-13-7-30-22-11-13-7-14M692 819l-79 28M842 869l83-10M203 209l72-40M71 1085l-9-4 0-2-62-33M662 742l-77 28M409 214l19 35 3 11 14 26M713 123l4 5 6 24 4 34 3 15M731 350l18 77M254 135l-69 37M341 1063l2 6 6 7 19 55 3 2M817 243l-8-11-9-2-47 27M76 489l-73 17M195 15l-66 35M370 51l-66 35M102 1091l-2 54 2 19M724 755l70-24M839 389l12-5 33 2 9 4 7 13 3 1M160 467l69-22M967 232l45 57M384 347l58-15 11-4"/><path id="r3" d="M271 486l-31-80-39-80M432 988l-138-6M1169 218l-108 77M1063 297l105-75M945 991l19 120M1020 633l-22 5-41-1-52 2M588 371l101-51M569 949l105 5M1153 913l23 97M1046 812l17 8 8 8 5 12 12 39 3 4 6 4M836 1054l-31-90M868 1142l-32-88M362 841l-92-8M884 1123l30-84M458 849l-8 88M932 256l43 75M987 393l35 35 33 18M414 439l43-25 15-6 19-3M1024 471l-49-43-9-14M1165 569l-44 46-12 5M590 53l38 26 25 15M81 155l29-11 38-20M884 754l-28 67M1141 862l-17-68M360 30l-61 21M471 944l63 3M1042 614l-1-13 1-14 10-34M709 435l-7-60M448 988l-2 59M933 984l-19 55M936 933l-9-56M1051 428l-37-42M290 538l-19-52M1131 502l42 36M511 3l-19 8-33 5M170 973l54 6M581 480l-6 1-45 15M650 338l-47 23M897 1154l52-1M826 895l-20 49M17 986l12-51M516 854l-53-5M662 159l23-32 5-11M774 93l-20 7-30 2M791 843l49-6M849 836l50-6M1109 728l-27-42M1124 794l48-10M863 428l24-3 24-7M663 239l23 16 4 1 15-4M1042 506l9 30 1 17M801 949l-3-3-15-39M476 404l-16 6-23 13M539 620l-14-41M685 212l-17-41M1121 781l-10-42M180 108l39-19M840 958l43 2M688 318l-38 20M339 664l-15-39M880 197l29 31M653 94l36 21M9 1026l5-12 3-28M403 844l-41-3M936 826l41-6M694 960l28 30M1005 369l31-27M831 623l29 27M884 641l-18-35M858 1200l13-37M494 508l-38 12M912 418l18-4 18-9M913 784l-6-38M885 289l15 29 4 3M850 219l17 33M1082 686l-19-31M908 1200l-24-27M294 982l-36-1M280 58l-32 15M818 64l-29 20M1034 315l-29 20M825 1172l34-11M920 1028l13-32M146 519l-33 8M526 600l12 32M456 520l-18 5-15 1M1058 527l-8-24-3-7M636 219l27 20M927 345l-23-24M1097 887l32 4M543 494l30-10M925 859l-5-31M29 935l0-12-7-18M826 789l9 28M541 164l29 8M319 470l28-10M1186 548l-21 21M410 23l-29 4M348 460l29-8M1178 896l-27-10M1002 371l-16-24M801 949l-4 2-3 3-1 7 5 4 7-1M791 843l-12 2-16 6M920 828l-5-29M351 699l9 27M1172 784l28-7M722 300l-6-28M806 726l9 27M257 490l-27 7M428 538l10-8 14-6M1048 331l5-19 3-7M349 690l-10-26M986 347l-24 13M597 861l-27-2M300 563l-10-25M941 960l-5-27M835 958l-26-1M997 818l27-4M889 166l-21 16M705 252l4 4 5 20M639 179l-22 15M589 477l25-8M725 953l-26-1M1052 553l5-17 1-9M437 423l-23 13M575 174l9 6 12 10M271 486l25-8M914 956l6-4 5-1 8 3 3 5M1152 895l26 1M1024 471l14 21M853 583l13 23M1045 627l-25 6M969 1175l2 25M697 871l-25-2M541 856l-25-2M866 606l0-5-3-12 0-8M70 539l24-7M471 518l24-8M762 955l25 1M501 401l-25 3M192 507l-24 6M459 16l-25 4M749 954l-24-1M491 405l25-1M709 305l-21 13M570 859l-24-3M855 161l13 21M585 203l-21 13M374 450l-23 8M1112 485l-20-13M883 960l24 1M676 449l23-7M753 854l-22 8M215 501l-23 6M815 753l6 22M1059 19l19-15M689 320l6 23M1061 295l-19 14M716 272l-5-22M1024 814l22-2M571 40l19 13M324 625l-8-21M749 427l22-7M168 513l-22 6M361 720l-8-21M1047 0l-18 13M1092 472l17 15M1005 335l-19 12M1032 39l18-13M537 394l-21 6M918 239l14 17M1178 1l13 18M507 528l-8-20M619 467l21-6M1178 896l22 2M522 500l5 0 16-6M781 1192l-20 7M937 963l-4 21M1199 531l-13 17M905 639l-17 0-4 2M730 999l15 14M554 26l17 14M1076 459l16 13M534 0l12 17M620 205l16 14M805 964l3-5 1-4-3-4-5-2M899 830l21-2M381 27l-21 3M717 867l-9 4-11 0M835 817l5 20M726 434l19-6M448 848l-20-2M798 1181l-7 6-10 5M162 117l18-9M977 820l20-2M546 225l10-3 8-6M450 937l1 21M549 948l20 1M962 360l-18 9M904 728l-3-20M1195 201l-17 10M564 216l-18 9M451 958l-1 19M945 991l-2-20M1063 655l-10-16M534 228l-13 8-4 1M868 182l12 15M884 641l-18 7M548 661l6 18M933 996l7-18M243 980l-19-1M646 175l12-9 2-4M1014 386l-12-15M987 383l15-12M975 331l11 16M782 416l18-5M964 1111l3 18M800 411l19-5M519 239l15-11M951 383l7 17M507 546l7 17M519 561l-7-17M845 145l10 16M714 276l5 18M603 361l-17 7M840 204l11-9 3-3M514 563l6 18M525 579l-6-18M682 947l-1 4 2 3 7 0 2-3M1109 620l-17 7"/><path id="r2" d="M973 540l173-58 16-4M1161 472l-27 10-162 55M69 413l90-64 42-23M76 1075l-67 125M45 25l-8 38-8 18-21 32-4 14-2 18M18 254l-6 36 0 32 5 21 13 30M799 1176l-5-6-11-21-26-81M256 974l-3-12-2-14 7-87M909 0l-90 63M201 326l94-50M247 805l33-20 61-24M45 891l13 1 87 21M253 836l1 10-8 87M282 165l-9-14-38-71M98 531l10 27 18 37 10 24M49 320l-22-91M28 1178l44-82M187 0l44 82M396 439l-22-90M1088 122l47 46 9 6 14 6M372 750l86-30M235 80l-42-80M444 190l-79 42M218 814l-42 77M363 333l3 9 7 30 12 45M262 1064l-5-50 1-33M413 545l13 18 23 54M160 343l-67 45M108 529l-6-18-21-42-4-14M551 1023l-2-75M177 819l-67 33M559 1127l15 73M544 948l1 73M5 183l13 54 0 17M516 788l25 68M546 856l-1-6-23-61M560 347l-7-12-7-18-2-16-1-20M753 1088l26 64M364 238l61-32M972 537l-64 21M314 225l-30-57M367 745l-62 21M561 683l61-21M200 710l-30-57M168 919l30-57M1166 448l-6-13-3-5-6-3-5 2-3 6 2 6 14 12M547 920l-1-64M486 707l23 59M490 705l-23-59M514 764l-24-59M542 885l2 63M243 980l-17 61M302 571l-44 16-16 3M463 649l23 58M232 1200l2-15-2-46M224 1139l3 41-3 20M617 462l-20-56M406 531l-11 7-43 15M456 715l-55 19M580 375l19 54M767 606l-54 19M50 417l-29 18-21 8M723 102l-55 7M231 82l25 49M1175 481l5 27 5 8 5 3 7-2 3-3M9 128l6-17 19-31M486 1052l54-5M736 804l17 45 0 5M506 707l50-21M71 459l4 15 16 33M15 180l-7-32 1-20M277 172l24 46M232 1139l-1-15 2-8 5-13 9-13M497 741l19 47M908 558l-42 13-7 1M27 229l-12-49M153 964l-3-8 0-5 18-32M653 94l-7 12-5 3-7 1-16-4-4 1-2 3M61 369l-12-49M68 651l47-13M297 270l-43 22M190 613l46-15M116 1002l-22 42M0 449l43-19M647 144l-7-6-21-7-2-6 5-8M635 511l-16-44M307 575l44-15M748 107l33-6 13 1M1056 91l16 17 16 14M849 576l-10 5-32 12M531 315l4 13 5 8 6 9 10 7M633 653l-42 15M394 449l10 44M221 1095l3 44M1088 122l-29-32M236 598l41-13M517 242l11 18 2 9 0 13M706 1039l-43-3M707 632l40-13M162 918l-20 37M134 586l-19-37M552 1086l7 41M474 181l38-17M582 1200l-8-41M259 135l18 37M777 76l-1 9-5 5-9 4-13 2M816 594l37-11M807 65l-13 8-6 1-3-2-2-4 0-5 2-4M331 257l33-19M2 145l3 38M375 553l24-7 13-1M160 343l-10 5-26 7M404 493l2 16 0 22M438 575l-7-20-3-17M741 1053l12 35M242 590l-13 2-23 8M568 1126l-6-37M970 30l-22-30M938 552l35-12M601 434l13 35M647 545l-12-34M643 1035l-17-2-18 0M597 406l-12-33M61 644l-34 8M597 1042l35 2M741 1039l-21 1-14-1M274 777l-33 11M513 231l-22-27M829 89l-16 12-7-1-6-5M229 305l-30 16M520 1040l-34 3M906 564l32-12M109 631l-33 9M159 628l14-8 17-7M573 126l-17 1-16 4M199 321l-30 16M0 384l33-7M305 766l-31 11M406 480l-8-32M184 607l-15 4-17 3M363 318l-15-29M365 232l-29 15M401 734l-32 10M152 614l-18-28M222 797l-29 14M591 668l-32 10M547 1054l5 32M763 851l-7-9-7-20M605 120l-32 6M654 577l10 30M617 476l11 30M554 679l-31 10M198 862l16-27M324 261l15 28M668 109l-31 5M1188 189l-14-6-16-3M779 1152l8 15 9 12M548 144l15-13 10-5M30 373l-30 6M1169 184l15 7 11 10M556 352l10 7 12 13M61 369l-31 4M307 229l14 27M707 1048l30 5M724 755l-10-29M486 1043l-23 2-7 2M160 658l15 27M470 675l9 24 1 5M1034 70l22 21M1059 90l-21-21M65 426l6 30M341 761l28-10M136 619l-27 12M328 251l-14-26M115 638l29-4M520 782l-2-9-6-18M714 726l-10-27M541 856l1 29M277 585l27-9M699 701l9 27M587 1033l-29 2M487 205l17 23M734 781l-10-26M664 607l5 18 0 10M831 1200l-24-16M132 973l-13 25M295 276l26-13M385 417l7 28M467 646l-10-26M414 507l-8-27M331 560l-26 10M428 41l4 28M44 881l-25 12M675 649l7 9 7 15M321 256l-24 14M549 948l-2-28M468 177l-24 13M69 870l-25 11M170 653l-11-25M530 282l0 27M710 731l9 26M458 720l26-5M460 1052l12 1 14-1M800 1183l21 17M745 1013l-4 26M343 280l-12-23M72 1096l13-22M480 704l-24 11M727 779l9 25M193 719l6 7 7 16M339 289l12 23M52 0l-7 25M94 1044l-13 22M577 366l-11-10-6-9M442 196l23-11M457 620l-11-23M484 715l11 23M724 102l17 5 7 0M786 54l-4 3-3 4-2 15M77 455l-5-25M793 597l-23 8M874 575l24-9M693 668l-2-11-2-13M771 610l24-8M772 873l-9-22M244 956l-1 24M708 626l-14 3-10 1M50 40l6-24M17 1200l11-22M447 597l-9-22M719 757l8 22M231 773l-10-21M536 267l-12-20M655 644l-22 9M642 545l9 22M561 1082l-4-23M794 102l16 3 7-2M509 766l7 22M747 619l22-8M38 376l23-5M1038 69l-6-4-14-6M454 628l9 21M795 602l21-8M540 131l-7 3-12 9M471 648l-10-20M28 659l22-3M572 1147l-4-21M0 663l22-3M95 859l-20 9M183 700l10 19M638 657l21-7M219 825l5-5 12-8M742 802l-8-21M176 891l-10 19M115 549l-7-20M352 553l-21 7M704 699l-7-20M494 160l-18 13M757 919l-2 21M0 906l19-9M254 292l-18 10M684 630l-12-18M749 822l-7-20M689 644l11-8 7-4M608 1033l-21 0M33 377l13 16M91 507l6 20M478 667l-7-19M65 389l-4-20M425 21l3 20M1017 61l17 9M663 1036l-20-1M425 206l17-10M577 1044l20-2M19 893l-18 8M27 652l-20 3M984 43l-14-13M247 805l0-9-6-8M511 693l-19 6M520 782l-6-18M95 1055l9-17M990 46l17 9M434 80l4 19M802 43l-16 11M50 656l18-5M785 59l15-11M93 388l-16 10M228 796l3 8 5 8M423 526l-10 0-7 5M557 1059l-7-16"/><path id="r1" d="M962 206l35 31 32 33 57 65 6 14 5 27M1100 347l-52-62-16-18-32-33-36-31M1062 927l103-42M1164 882l-104 42M417 1050l-99 9M1026 939l-50 9-27 10-5-1-3-2M930 977l-79 32M964 203l-58-54M559 1042l35-3 38 1M852 1012l56-22M1153 415l-36-47M1004 947l-53 22M540 1041l-57 5M1104 401l34 45M81 1066l-48-26M955 977l20-9 26-16M341 1063l50-5M923 175l39 31M412 1056l48-4M158 1076l47-4M1018 945l44-18M817 1021l-44 13M653 1038l-45-5M777 1041l33-11 9-5M920 1028l8-11 12-28M778 0l23 36M1190 465l-6-11-19-23M926 1006l-5 3-5 1-6-1-6-4-2-3 0-5 6-7M807 34l-22-34M1138 446l13 17 8 18M631 1037l-40-1M735 1044l-39-3M796 1029l-37 12M1060 924l-34 15M760 1044l35-12M46 1052l33 18M298 1061l-36 3M484 1049l35-3M143 1074l-35 3M890 132l-24-24M702 1045l33 2M262 1064l-18 1-15-2M1138 446l13 13 7 11M706 1039l-31 1M649 1041l30 2M1182 456l-12-16-5-9M7 1030l26 15M973 963l28-11M446 1047l-29 3M1169 503l8 11 12 10M233 1073l29-3M837 77l-18-22M1165 885l26-12M113 1080l28-2M591 1036l-27 2M483 1046l-27 1M1097 376l3 15 4 10M1117 368l-17-21M281 1068l26-2M1159 481l5 13 5 9M214 1066l-9 2-16 2M1187 871l-23 11M735 1047l14-1 11-2M759 1041l-10 3-14 0M930 972l-6 1-7-2-3-3-1-6M929 981l22-9M460 1052l24-3M951 972l22-9M1200 493l-10-21M906 149l-16-17M1026 939l-22 8M810 48l14 18M851 1009l-22 7M108 1077l-8 0-13-7M319 1065l22-2M951 969l-21 8M1198 486l-8-21M1004 947l-21 5M653 1038l-22-1M908 990l21-9M1162 483l7 20M675 1040l-22-2M865 111l15 16M950 964l-20 8M33 1040l-19-11M696 1041l-21-1M519 1046l21-2M391 1058l21-2M318 1059l-20 2M1165 431l-12-16M177 1071l-20 2M85 1074l11 5 7 2M1001 952l17-7M968 957l-18 7M540 1044l19-2M559 1039l-19 2M866 108l-12-14"/></defs><rect class="pp" width="1200" height="1200"/><path class="block" d="M454 851l-187-15-3 7-8 108 3 24 1 2 181 6 5-7 8-125ZM190 274l-12 5-12-24-3 2 11 22-9 4-15 1-25-5-13-25 1-7-4 1-16-30 31-7 70-38 2 3-3 2 15 31 53-30 3 5 5-3 2 2 19 39-100 52ZM589 517l34 95 4 2 2 7-9 2-6-6-31 14-2-2-25 8-2-4-3 1-12-32-7-8-1-14-11-32 3-1-2-6 24-8 1-4 33-9-1-7 5-4 9 2 2 4-5 2ZM216 779l-84 33 3 10 4 0-14 8-125 49 0 321 0-363 11-7 2 5 51-24-1-2 2 2 10-3 25-12 2 6 27-8 38-17 3-6 13 1 25-9 0-2 10 17-2 1ZM0 1200l0-172 4 3-3 5 6 4 67 36-66 124ZM406 777l88-33 19 49-104 40-16-41 16-3-3-12ZM142 696l2 5 9-3-5 14 8 21 7 2-22 13-79 27-4-12-6 0-9-17-11-1 2-10 3 1 80-32-2-5 25-8 2 5ZM1045 901l-14 6 0 3-15 1 1 14 7 4-47 16-8-78 33-6 2 6 46-9 4 16-6 11-3 16ZM556 1133l5 36-8 5-40 9-20 3-1-5-2 1-2-8 3-1-8-47 5-6 6-4 57-8 5 25ZM344 257l-2-3 27-15 6 7 10-4-2-10 26-14 7 13-4 2 30 53-17 9-3-2-2-3 4-2-2-2 8-3-15-29-25 12-2 5 1 4 14 25 5-3 2 7-37 21-3-5 2-1-27-49 10-5-1-2-5-8-5 2ZM892 1115l22-63 18-2-3-23 2-1-7 1 10-19 7-1 15 100-2 1 1 5-17 4-16-1 0 6-17 0 0 13-4 4-14 2-3-1 0-3 8-22ZM70 155l-3-19 16-46 0-11 21-2-2-13 25-10 9 19-26 8-5 6 9 20-19 7 2 4 51-24 9 20-52 27-35 14ZM1177 562l3 3 8-10 12 9-2 4 2 1 0 66-46 37-5-6 19-58-16-20 25-26ZM276 239l5-1-2-4 14-9 10 18 4-2 7 13-14 8-5-4-49 31-2-3-4 2-7 4 2 5-17 9-5-7-5 2-3-5 6-3-5-8-6 3-6-10 37-20 1 2 5-3-1-2 10-5 3 1 24-13 3 1ZM218 84l-42 21-5-10-9 3-6-12-3 0 10-5 3 2 2-2-5-16-18 9-11-24 51-28 33 62ZM955 556l-57 17 11 31 3 2 35-10 3 4 34-4 5-22-11-24-23 6ZM855 705l-21 6-11-20-21 6-7-23 64-20 13 11 10 34-27 6ZM386 334l-5-9 84-48 14 26 16-9-4 13-11 8-24 8-11-20-3 2 9 18-8 5-43 11-3-6-9 5-2-4ZM176 1078l1 13-4 1 1 13-14 2 2 23 2 0 1 10 52-3-4-56-8-6-24 1-5 2ZM320 630l6 15 2-1 2 3 3 14-24 28-11 7-16 7-15-52 53-21ZM485 920l0-4 22 2 0-3 10-1 22 2-1-32-11-1 1-18-29-2-1 7-6-1-1 11-8 1-2 23-4 0 0 5-11-1-2 16 9 0 4-1 0-4 8 1ZM455 649l3 8-47 16-7-20-10 4 3 8-5 2 4 12-18 8-4-12-9 4 3 11-6 3-5-14-8 3-6-15 1-4 92-32 5 20 14-2ZM886 199l30-25 49 62-32 16-47-53ZM1041 1022l-82-22-1 2 7 43 15-2 7-4 6 2 17-2 5 19 9-2 3-5 9-4 7-22-2-3ZM499 398l-27 5-7-27 28-8 4 12 12-2-10-41 31-8 8 30-11 3 11 22-9 4-2-5-7 1-1 11-20 3ZM473 640l8 23 54-20-8-29-5 2-5-15-49 18 2 5-4 6 7 10ZM16 123l6-16 28-46 7-1 11 5 7-1 1 24-10 30-3-1-1 3-35 8-6-1 0 3-8-1 3-6ZM84 190l-4 1-7-23 91-40 11 23-55 26 1-2-4-5-10 6 2 5-13 5-2-7-8 5 2 4-4 2ZM829 756l6-2-5-18 11-5-4-13 49-16 0 13-6 5 4 3 1 8-4 21-50 17-3-11 1-2ZM728 1197l1 3-24 0-7-26-23-22-10-3 27-24 52 50-20 6 4 16ZM738 368l-4-17 18-5 2 6 9-2 0-5 5 21 5-2 13 38 6 5-39 14-15-53ZM52 258l-7-28 43-11 30 56 0 2-28-6-38-13ZM347 456l-4 1-4-12-17 5 4 13-21 7-12-41 2-3 42-14 5 19 12-4-2-8 10-3 7 30-10 6-4-12-11 3 3 13ZM324 352l-32 20-3-6 6-4-3-7 13-7-6-10-18 9-4-1-3-7 66-34 18 28-34 19ZM474 240l-6-8-5 3-4-9-4 2-8-16 14-7-6-12 11-6 34 62-3 5-37 21-11-21 25-14ZM958 295l14 24 14-7 8 16-4 4 2 4 3-1 2 3 31-23-32-41-38 21ZM568 1048l29-3 3 0 1 4 11 1 10 45-52-4-1-8 3-21-10-7 3-9 3 2ZM375 73l13 20-2 1 3 5-5 2 2 5-54 27-14-26 3-2-1-3 55-29ZM194 725l-4-1-57 33-4 4 1 3-41 26-2 4 3 6 33-11-4-6 82-39-1-5 3-1-9-13ZM158 841l15-7 6 13-2 6-9-6-6 3 4 7 4-2 16 9-25 46-3-2-22-32-10-21 17-8 6 11 10-5-3-7 4-1-2-4ZM571 119l-7 1-1-2-22 10-28 18-7-11 25-18 4-6 5 4 8-9 1-9-4-4 5-13 4 13 9-5-1-14-6-7 15-22 16 10-13 23-2 17 4 15-8 3 3 6ZM713 891l2-19 28-11 10 30-5 2 4 17-3 1-3-11-49 40-6 0 5-41 17 1-5 8 6 8 12-9-7-8 1-7-7-1ZM193 320l-43 24-23 7-8-26 24-7-2-6 38-13 6 0 8 21ZM525 684l-19 8-6 1-1-4-4 2-5-5-9-23 56-20 10 28-3 1 2 4-7 5-14 3ZM673 932l6 6 7 1 9-65-11-2-1 17-7-1-1 10-6-4-8 7-5-5 6-5-14-7 1-15-13-2-11 3 4 12 39 44 11-7 1 7-7 6ZM694 208l-5 2-24-51 5-8 10 14 4-2 10 10 9-8 7-1-4-16-14-25 19 3 13 66-4 1-2-4-25 8 1 11ZM261 389l-14 5-2-3-4 2-3-5-2 1-11-28 22-11 1 3 23-12 16 33-25 14-3-1 2 2ZM180 402l-5 1-5-11-7 3 10 31-15 5-5-2-9-31 64-28 4 7 4-2-4-7 4-2 11 19-19 7 8 19-8 3-8-19-20 7ZM467 823l10-4 4 9 20-8-3-3-3-10 22-8 8 32 1 2 3-1 3 7-5 0 0 12-58-4 4-12-6-12ZM337 150l16 32-39 21-18-36 4-3-1-3 33-18 5 7ZM197 970l17-36-44-11-17 33 6 11 38 3ZM837 1137l5-6-12-15-39 11 4 16-7 4 7 2 10 25 11-3-7-24 16-4 6 25 28-10 0-6-16 5-6-20ZM747 798l70-24-13-32 2-1-4-11-35 12 3 9 20-7 6 18 4 2-26 12-3-8-13 5 4 8-8 3-3-9-12 5 8 18ZM751 213l61-29 16 22-11 8-9-9-30 23-26 10-11-20 10-5ZM365 513l1-1 3 11 26-9 3 13-5 8-8 1-58 18-8-30 34-9 2 7 11-3-1-6ZM236 327l-3 2 7 16-15 5-2-3-4 2-14-22 67-36 5 9-15 7 9 18 17-9 3 5-37 19-10-24-11 5 3 6ZM133 44l-17-30 30-14 33 0 8 15-54 29ZM433 256l6-3-3-5-4 2-10-18 5-4-6 1-7-14 42-21 5 11-27 11 9 15 16-5 4 7-13 7 2 2-4 2 5 8-4 2 11 21-14 9-13-28ZM647 780l26-9-2-9-3 1-3-3-1-4 5-2-4-10-76 27 5 15 12-4-3-6 6-3 7 18 16-6-1-4 8-3 0-4-5 0-1-4 5-4 4-1 5 15ZM905 636l-7 0 0-8-15 3-4-7-9-40 29-8 18 55 0 4-12 1ZM756 1120l-38 11-3 6 44 42 14-5-17-54ZM1103 836l-1 50 37 0 2-10-10-41-28 1ZM857 492l2 0-4-14-12-30-31 8 19 67 14-5-18-57 2 0 5 17 10-3 2 6-7 4 3 12 15-5ZM1200 775l-25 5-20-39 33-18 12 11ZM381 643l-10-29 53-18 11 27-54 20ZM454 711l-53 18 6-5-4-10 38-30 23-9 11 25-13 4 1 3-9 4ZM222 455l12 34-64 16-3-15 25-4-7-24 11-4 1 5 9-2 1 3 12-3 1-7 2 1ZM10 60l-10 2 0-43 45-8-10 43-25 6ZM662 235l-33-26 14-12-3-4 3-3 7-4 3 4 15-10 17 38-23 17ZM277 53l-37 19-19-33 10-6 1 3 7-3 5 1 13-11-2-3 8-4 14 28-4 2 4 7ZM916 1017l-16 49-23-13 5-14-11-6 10-26 14-2 3 1-2 4 20 7ZM829 1050l-36 15 41 46 16-6-21-55ZM217 101l6 6 14-4 7 14-60 31 7-5-3-7-10 4-8-16 47-23ZM767 465l-39 14-13-36 40-14 12 36ZM919 725l-10 1 6 40 17-4 3 14-18 3 2 13 28-2 2-4 2 5-5-20 8-3-25-37-8 3-2-9ZM109 585l3-1 2 4 4 30-18 10-21 6-4-44 34-5ZM329 135l-22 13-22 10-5-8-2 2-8-16 2-1-2-3 43-23 16 26ZM788 814l7 20-31 12-16-43 48-17 3 10-20 7 2 3-6 5 5 12 3-2-1-5 6-2ZM32 883l68-31-5-11-95 38 0 17 32-13ZM891 1088l-5 13-13-3-15 7-17-49 22-3 23 13-10 16 15 6ZM527 786l-14-46 26-9 8 26 6-2 2 5 3 0 5 15-34 12-2-1ZM873 831l-2-14 4-10 7-1-1-14 3-1-1-8 24-4 7 47-41 5ZM18 1200l25-47 7 3-2 4 21 11 0 29ZM42 933l-10-1 0-14-6-13 26-11 21 5 2 36-27-2 0-5-5-1-1 6ZM457 350l-29 7-1 7-36 9-7-23 67-18 6 18ZM367 50l-60 33-13-25 40-15 4 2 21-11 8 16ZM204 765l4-4-6-15-7 1-75 37 3 5-23 8 2 5 29-9 36-16 3-6 13 1 21-7ZM245 553l44-13 11 29-46 15-9-31ZM33 497l1-14-9-5-20 3-3-2-1-11 62-6 4 3 5 18-5 6-34 8ZM439 669l20-8 5 14-23 9-39 30-10-25 1-3 46-17ZM367 417l-16-61-4 1 4 16-20 5-5-19 33-20 20 75-12 3ZM387 1015l-18 0 1-28 52 3-1 27-34-2Z"/><path class="old" d="M757 99l-80 9-106-68 30-40 236 0 23 33-86 60-17 6Z"/><path class="green" d="M1094 1033l8-4 51 11 4 5 6-3 37 10 0 148-202 0 6-9-5-34-10-1-1-3-10 2-13-91 59-8 3-5 9-4 7-22-2-3 6-6 40 9 1 5 6 3ZM580 1092l42 3-10-45-11-1 1-6 90 5 42 8 22 61-1 3-37 11-8 9 36 34-22 7 5 19-24 0-7-26-23-22-10-3-33 10-19 10 1 5-29 5-7-29 11-1 12-6 0 6 7 4 6-6-6-13-30 15-7-36 8-9 1-12ZM379 1200l8-2-22-63 5-2 3 7 6 23 6 2 26-11-10-27-27 9-5-15 27 3 28-10 2-22 4 0 2 6 20-2 2 7 5 0-8-26 5-18 82-7 5 4 9 49-60 10-11 8 0 8-2 1 4 1 8 40-3 1 5 12 69-15 6 29ZM1045 808l-4 0-3-10 4-1 3-8-2-26-15-23 3-2-6-24-15 5-7-30 0-13 15-4-2-13-4-5-12 4-1 3-4 0-1-5-5 2-3 16 8-2 5 18-28 8 2-12-2-8-17 4 15-12-4-14-27 7 0-3 7-3-1-7-3-1 0-9 57 1 22-6 11 1 1 5 4-1-1-8 9 1 47 73-3 2 3 6 3-2 10 14 16 67-21 3-11-33-7 2 6 25-36 7 3 10-9 1ZM589 364l95-46 10-9-3-14-5 1-2-8-17 4-2-10 16-4-2-9 5-1-2-6-4 1-3-12-22-17-3 1-11 32-6 0 0-4-31-1-22-17 2-2-15-11 1-3-6-6-5 4 7 6-4 5-3-2-20 23-4-3 13 22 2 28 8 28 6 11 12 11 6 5-2-5 4-2 7 10ZM930 601l-18 5-3-2 8 31 80 0 25-6 7-2 0-2 10-1-3-32 11-47-6-23-60 21 2 7-5 0 11 24-5 22-34 4-3-4-7 2 2 6-10 3-2-6ZM535 31l13 13-10 10 5 6-12 18-3-3-17 17-2-3-29 20-14-28-26-42-2-16 53-7 26-12 4 8-5 3 12 18 5-4 2 2ZM969 867l-3-24-4 1-5-7-1-12-29 4 19 120 17 0 14-4-8-78ZM1042 815l0 2 8-1-1 14 4 11 8 0 1-15-9-5 1-3 15 11 22 58 7 5 24 2-69 29-29 6-6-18 13-1 0-3 13-4 10-29-4-16-3 0-5-25-8 0-2-17 10-1ZM1049 1004l13-32 0-29-2-4-76 30 2 29 61 14 2-8ZM1094 1017l-6 4-41-9 15-40 0-29-2-4-21 7 27-16 33-14-3 101-2 0ZM861 326l-4-9-2-18 3-1-6-14-17-13-20 2-4-6 12-10-1-5 4-1 5 4 9-9 2-9-8-21 3-5 4 0 8 13 49 95 0 4-23 7-16 1 2-5ZM1061 521l0 15-9 29 31-11 22 30 11 30 11-8-4-4 3-6 0-21 14 13 0 3 5-5-26-23 28-42-4-2-7 8-48 16-10-32-18 6 1 4ZM429 357l-2 7-40 8 6 19 63-18 10 31 6-1-7-27 28-8 4 12 12-2-10-40-70 19ZM1165 978l-4-15-60-6 1-41-3 0-3 102 7 6 30 7 1-9-6-46 37 2ZM584 509l-6 4 0 7-32 9-1 4-24 8 2 6-3 1-13-37 103-34 0 21-17 6-2-3-7 8ZM688 1200l16-7-5-18-24-23-10-3-31 9 8 4-12 26 4 12ZM1081 319l21 27-3 3 33 41-2 2-2-2-19 16-7-13-3-17-4 0 1 13-43-53 23-18 5 1ZM952 517l-3-14 61-39 15 13 8 12-71 40-2-3-11-1 3-8ZM1181 181l6 0-24-21-18-31-8-5-5-10-5 4-5-5 1-5 4 3-23-19 0 4-10 10 16 10-7 4-1 5-7-6-3 2 47 44 8-5 9 5 0 2-3 0 3 5-2 1 27 8ZM365 988l-35-2-2 46-3 0-1 21 39-3 2-62ZM1133 1031l21 5 5-2 5 4 15 3-14-63-37-2 6 46-1 9ZM426 1092l-2-9 8-2-1-4-7 1-9-17-22 2-4 45-26-2 6 15 27 3 28-10 2-22ZM1102 144l-2-6-33-32-21-7 2-4 6-2-7-8-17 5-4 5-1 5 9 10 3 10 8 5 7 11 8 3 20 15 17-11 5 1ZM1200 641l-44 36-3 7 47 42ZM757 27l-2-4-8 3-5 4-3 8 3 5 2 0 9 24-4 14 23-6 4-3 3-14 14-11-5-9 1-5-10-14-11 1-11 7ZM1126 696l-4-5-18 0-10 6-12-19 24-26 17 12 36 34-21 13-1-6-8-11-3 2ZM1136 177l-10 2-1 4 11 8 1 5-14-1-7-9-2 4 3 5-4-2-9-15 2-4 4-2 3 10 8 1-5-9 11-7-18-17-2 2 5 15-14 5-4 5 22 24 14 21 14 10 20-14-7-13-9-9-12-19ZM862 235l18-9 2 4-19 8 6 11 36-20-37-42-16 10-5 7 15 31ZM168 1171l-11-92-14 1 5 55-5 1 4 36 21-1ZM462 1177l-11-1-4-4 4-14 4-5-1-7 8-8 21-5 8 40-3 1 2 8-23 2-4-3-1-4ZM1187 282l-8-14-3-2-4 3-8-6-9-18-5-3 0-2 11-9 10-1 10 11 19 13 0 45-13-17ZM363 1106l26 2 4-45-39 5-1 14 10 24ZM369 790l-4 48 26 2 11-4-19-50-14 4ZM261 1039l67-12 0-12-67-3 0 27ZM507 1087l3-5-4-13 10 4 8-17-31 4-1 2 3 5-4 1-3-1 2-4-2-3-5-3-27 2-3 7 10 5 3 5 3-4 5 2 4-2-1 12 5 0 2-6 9-3-2 14-4 5 20-7ZM920 219l1 5 21-11-3-6 2-2-25-31-9 8 3 4 0 7-4 5-15 6 17 18 5-6 5-1 2 4ZM296 2l-22 14 1 3-2 1 16 30 29-9-22-39ZM797 146l-8-16-16 1-9-2-2-21-21 1-16-2 26 13-6 3 3 6-1 1 5 12 5-2 3 10 12-4 25 0ZM892 468l-2 3 3 6 30-18-6-9 13-12 1-7-4-4-15-2-2 4-12 4 1 3-6 2 9 22-11 5 1 3ZM1166 122l-12 2-1 5 30 31 8 1 4-6 5 1 0 4-4 1 0 3 4 1 0-33-28-6-6-4ZM245 118l-62 33 4 13 64-32-6-14ZM956 216l24 29 11-3 6 4 11-10-11-9-5 2-6-11-20-17-10 15ZM1170 1100l-10 2 4 5-3 5 0 19 12 18 15 0-8-50-10 1ZM571 261l24 1 0-2-36-31-4 5 2 2-4 8-2-1-5 7-2-1-7 10-4-3 2 5 36 0ZM420 26l-20 3 2 17 8 20 9 15 7-5-6-50ZM1159 698l9 8-8 5-7-1-4 6 4 8-37 20-4-16 47-30ZM317 1153l10 5 10-3 4 2 8-6 11 16-7 5-4-7-7 3-4-9-7 2 4 11-3 9 9-1 8 20-15 0-17-47ZM879 357l-2-6 19-9 9 11 6 0 6 6-3 4 8 13-12 5-9-12-6 0-2 4-4-5-3-3 7-3-7-9-7 4ZM648 144l-9-8-18-5-2-8 4-3 46-8-21 32ZM793 256l-6-11 8-7-1-2-33 19 3 4-5 2 9 20 16-10 1-10 8-5ZM627 142l-9 7-3-3-5 2-11-14-5 4-9-12 33-6-2 7 3 6 20 6 6 5-5 2-7-5-6 1ZM914 508l3 1 11-3 8-11-4-11-11-10-8-3-12 6-2-5 24-12 21 30 5 13-34 12-4-14 3 7ZM899 883l4-2-2-16-35 4 2 21 31-7ZM1137 621l-11-7-22 13-14 4 0 5 22 14 1-8 15-16 9-5ZM307 382l8 23 25-7-5-21-8 3-1-6-19 8ZM139 173l37-18 5 14-34 19-8-15ZM1200 968l-29-1 4 25 1-2 24 1ZM298 1182l2 8-13 10-40 0-10-9 0-25 6-8 12 37 7 5 18 0 18-18Z"/><path class="water" d="M1166 409l-64-91-39-44-64-62-125-110-57-73 48-29 30 0-17 13 7 9-4-8 6-4 6 2 25 28 15 5-2-8-17-27-12-10 16 0 29 35 12 10-20 28 31 14 11 1 24-2 10-4 4 9-4 5 1 5 13 10 1 10-15 21 6-3 18 10 23 33 2-3 14 3-5-9 1-6 4-2 6 3 3 10-16 21 8-1 16 13 11 13 9 17 15 16 17 4 13 8-10 12 0 3 5-4 10 4 19 20 6 3-4-9 4 0 0-3-8-13-17-8 3-6 17 10 15 21-1 6-6 4-11 16 2 1 5-6 11 13 0 129-34-53ZM1157 122l-24-6-28-23-4-1-7 4-12-12 0-7-7 2-2-11 18-5 3 2 13-2 0-3 20 0 73 15 0 18-56-14-7 3-4 15 5 5 62 14 0 14-31-8-12 0ZM1140 1157l-3-23 2-26 3 0 0 17 13 0-1-17 3 0 1 33 3 4 3 25-11 5-4 6-2-5-10-2-5-7 8-10ZM1157 1108l-3 0 0-5-12 1 0 4-3 0-3-70 3-8 8 3-1 7 9 16 2 52ZM865 0l-48 29-19-29ZM1157 122l-4 4 0 3 24 29 7 5 16 3-3 19-11-5-17-16-2-6-4-2-18-27-8-5-4-8 24 6Z"/><path class="river" d="M1200 417l-31-56-24-32-54-63-32-34-38-38-41-39-32-25-12-11-35-36-24-28-17-22M1200 125l-64-15-34-43-124 29-12 8-18 26M960 939l4 0 2-3-4-12-5-25M1176 277l6 2 6 7 1 4 9 10-3 6-5 3M860 33l-23-33M937 212l-6-13-4-3-3 0-4-3-4-1M1193 172l-4-3-13-5-6-8M1158 141l-10-13-2-8"/><g class="cs"><use href="#r5" class="r5"/><use href="#r4" class="r4"/><use href="#r3" class="r3"/><use href="#r2" class="r2"/><use href="#r1" class="r1"/></g><g class="rd"><use href="#r5" class="r5"/><use href="#r4" class="r4"/><use href="#r3" class="r3"/><use href="#r2" class="r2"/><use href="#r1" class="r1"/></g><path class="rail" d="M969 531l-111 47-153 53-20 5-41 1-19 4-44 15-41 20-171 59M369 736l257-90 21-5 41-4 16-5 153-52 113-48M239 777l-215 84M756 611l105-37 84-35 22-11M772 606l92-32 81-34 22-11M179 803l36-14 154-53M270 763l-188 70M592 642l-32 4-15 3-82 28-24 13-29 23M592 642l-43 10-90 31-21 11-28 19M592 643l-47 12-84 29-21 10-24 17M418 713l124-44 44-21M422 710l13-6 105-36 43-20M25 862l154-59M20 861l144-55M0 876l26-12 109-42M135 821l-109 42-26 12M369 735l-23 8-44 12-63 22M80 807l55-23 60-27M99 810l19-8 92-34M102 817l20-6 91-34M87 817l18-5 78-29 15-7M49 831l110-41M596 644l32-10 14-1 37 2 16-3 15-4M164 806l106-42M364 741l-79 25-24 10M363 740l-102 34M606 638l24-6 49 1 13-1 18-5M99 800l35-14 61-28M510 672l-60 21-34 18M418 713l49-14 47-16M422 710l32-17 57-20M223 787l-88 34M135 822l89-33M1130 393l70-58M80 807l22-8 23-6 39-18M1131 394l69-57M1132 395l68-56M1132 396l68-56M80 807l-24 8-56 27M592 643l-82 29M352 738l-46 13-36 12M270 764l36-12 46-13M81 822l79-29M165 776l-39 18-38 10M514 683l35-13 37-22M511 673l72-25M970 532l38-20 25-17M969 531l39-20 24-17M967 529l46-25 17-11M967 528l45-25 18-11M37 839l65-22M36 836l63-26M710 628l62-22M1077 454l31-39M1075 453l32-39M1075 452l31-38M1077 455l32-39M710 627l46-16M82 833l-45 16M37 839l44-17M52 846l-44 18M159 790l39-14M160 793l39-14M0 855l7-4 30-12M224 789l37-13M261 774l-38 13M1044 486l27-24M1043 486l27-25M1042 484l27-24M1041 483l27-24M37 849l-34 11M402 718l-14 8-17 6M81 822l-32 9M80 819l-30 15M82 833l-30 13M453 709l-31 11M410 724l-30 10M436 716l-26 9M385 728l24-11M0 873l25-11M24 861l-24 10M394 730l-24 9M1112 408l18-15M1113 409l18-15M1114 410l18-15M1115 410l17-14M0 870l20-9M102 817l-21 5M19 842l-19 8M99 810l-19 9M0 848l19-6M181 784l18-5M105 812l-16 8"/><path class="tie" d="M969 531l-111 47-153 53-20 5-41 1-19 4-44 15-41 20-171 59M369 736l257-90 21-5 41-4 16-5 153-52 113-48M239 777l-215 84M756 611l105-37 84-35 22-11M772 606l92-32 81-34 22-11M179 803l36-14 154-53M270 763l-188 70M592 642l-32 4-15 3-82 28-24 13-29 23M592 642l-43 10-90 31-21 11-28 19M592 643l-47 12-84 29-21 10-24 17M418 713l124-44 44-21M422 710l13-6 105-36 43-20M25 862l154-59M20 861l144-55M0 876l26-12 109-42M135 821l-109 42-26 12M369 735l-23 8-44 12-63 22M80 807l55-23 60-27M99 810l19-8 92-34M102 817l20-6 91-34M87 817l18-5 78-29 15-7M49 831l110-41M596 644l32-10 14-1 37 2 16-3 15-4M164 806l106-42M364 741l-79 25-24 10M363 740l-102 34M606 638l24-6 49 1 13-1 18-5M99 800l35-14 61-28M510 672l-60 21-34 18M418 713l49-14 47-16M422 710l32-17 57-20M223 787l-88 34M135 822l89-33M1130 393l70-58M80 807l22-8 23-6 39-18M1131 394l69-57M1132 395l68-56M1132 396l68-56M80 807l-24 8-56 27M592 643l-82 29M352 738l-46 13-36 12M270 764l36-12 46-13M81 822l79-29M165 776l-39 18-38 10M514 683l35-13 37-22M511 673l72-25M970 532l38-20 25-17M969 531l39-20 24-17M967 529l46-25 17-11M967 528l45-25 18-11M37 839l65-22M36 836l63-26M710 628l62-22M1077 454l31-39M1075 453l32-39M1075 452l31-38M1077 455l32-39M710 627l46-16M82 833l-45 16M37 839l44-17M52 846l-44 18M159 790l39-14M160 793l39-14M0 855l7-4 30-12M224 789l37-13M261 774l-38 13M1044 486l27-24M1043 486l27-25M1042 484l27-24M1041 483l27-24M37 849l-34 11M402 718l-14 8-17 6M81 822l-32 9M80 819l-30 15M82 833l-30 13M453 709l-31 11M410 724l-30 10M436 716l-26 9M385 728l24-11M0 873l25-11M24 861l-24 10M394 730l-24 9M1112 408l18-15M1113 409l18-15M1114 410l18-15M1115 410l17-14M0 870l20-9M102 817l-21 5M19 842l-19 8M99 810l-19 9M0 848l19-6M181 784l18-5M105 812l-16 8"/><path class="wall" d="M665 56l7 4 0 1 1 0 11 7 0 1 23 9-2 5M642 28l3 5-1 1 2 1 7 12 6 4M705 73l-27-13M639 0l-4 8 4 12-1 1 2 2M645 26l7 11-1 1 8 7M644 0l-5 9 4 13"/></svg>